<?xml version="1.0" encoding="UTF-8" standalone="no"?>
<svg
   xmlns:dc="http://purl.org/dc/elements/1.1/"
   xmlns:cc="http://creativecommons.org/ns#"
   xmlns:rdf="http://www.w3.org/1999/02/22-rdf-syntax-ns#"
   xmlns:svg="http://www.w3.org/2000/svg"
   xmlns="http://www.w3.org/2000/svg"
   xmlns:sodipodi="http://sodipodi.sourceforge.net/DTD/sodipodi-0.dtd"
   xmlns:inkscape="http://www.inkscape.org/namespaces/inkscape"
   width="36"
   height="36"
   viewBox="0 0 9.5249998 9.5250003"
   version="1.1"
   id="svg955"
   inkscape:version="1.0.2 (e86c870879, 2021-01-15)"
   sodipodi:docname="disk.svg">
  <defs
     id="defs949" />
  <sodipodi:namedview
     id="base"
     pagecolor="#ffffff"
     bordercolor="#666666"
     borderopacity="1.0"
     inkscape:pageopacity="0.0"
     inkscape:pageshadow="2"
     inkscape:zoom="5.6"
     inkscape:cx="22.271149"
     inkscape:cy="31.802605"
     inkscape:document-units="mm"
     inkscape:current-layer="layer1"
     inkscape:document-rotation="0"
     showgrid="false"
     units="px"
     inkscape:window-width="1426"
     inkscape:window-height="891"
     inkscape:window-x="0"
     inkscape:window-y="0"
     inkscape:window-maximized="0" />
  <metadata
     id="metadata952">
    <rdf:RDF>
      <cc:Work
         rdf:about="">
        <dc:format>image/svg+xml</dc:format>
        <dc:type
           rdf:resource="http://purl.org/dc/dcmitype/StillImage" />
        <dc:title></dc:title>
      </cc:Work>
    </rdf:RDF>
  </metadata>
  <g
     inkscape:label="Layer 1"
     inkscape:groupmode="layer"
     id="layer1">
    <g
       id="g1766"
       transform="matrix(0.48176199,0,0,0.48176199,1.5986071,-2.2709023)">
      <g
         id="g6"
         transform="matrix(0.41491116,0,0,0.41491116,-66.756048,-1.0345223)">
        <rect
           x="176.5"
           y="17.309999"
           class="st0"
           width="13.41"
           height="17.74"
           id="rect4"
           style="fill:#ffffff" />
      </g>
      <g
         id="g10"
         transform="matrix(0.41491116,0,0,0.41491116,-66.756048,-1.0345223)">
        <path
           class="st1"
           d="m 184.2,25.73 v 3.45 c 0,0.76 -0.63,1.39 -1.39,1.39 -0.76,0 -1.39,-0.63 -1.39,-1.39 v -3.45 z"
           id="path8"
           inkscape:connector-curvature="0"
           style="fill:#b1d3df" />
      </g>
      <g
         id="g14"
         transform="matrix(0.41491116,0,0,0.41491116,-66.756048,-1.0345223)">
        <path
           class="st1"
           d="m 181.43,26.2 v -2.86 c 0,-0.76 0.63,-1.39 1.39,-1.39 0.76,0 1.39,0.63 1.39,1.39 v 2.86 z"
           id="path12"
           inkscape:connector-curvature="0"
           style="fill:#b1d3df" />
      </g>
      <g
         id="g18"
         transform="matrix(0.41491116,0,0,0.41491116,-66.756048,-1.0345223)">
        <rect
           x="163.55"
           y="17.32"
           class="st0"
           width="13.41"
           height="17.74"
           id="rect16"
           style="fill:#ffffff" />
      </g>
      <g
         id="g24"
         transform="matrix(0.41491116,0,0,0.41491116,-66.756048,-1.0345223)">
        <path
           class="st2"
           d="m 195.64,33.33 h -4.16 V 20.25 c 0,-2.3 -1.87,-4.16 -4.16,-4.16 h -8.7 -3.77 -8.7 c -2.3,0 -4.16,1.87 -4.16,4.16 v 13.08 h -4.16 c -0.76,0 -1.39,0.63 -1.39,1.39 v 14.85 c 0,5.36 4.35,9.7 9.7,9.7 h 8.7 3.77 8.7 c 5.36,0 9.7,-4.35 9.7,-9.7 V 34.72 c 0.02,-0.76 -0.61,-1.39 -1.37,-1.39 z M 164.76,20.25 c 0,-0.76 0.63,-1.39 1.39,-1.39 h 8.7 3.77 8.7 c 0.76,0 1.39,0.63 1.39,1.39 v 13.08 h -10.08 -3.77 -10.08 V 20.25 Z"
           id="path20"
           inkscape:connector-curvature="0"
           style="fill:#30333a" />
        <path
           class="st0"
           d="m 187.3,59.89 h -21.16 c -5.69,0 -10.32,-4.63 -10.32,-10.32 V 34.72 c 0,-1.1 0.9,-2 2,-2 h 3.55 V 20.25 c 0,-2.63 2.14,-4.78 4.78,-4.78 h 21.16 c 2.63,0 4.78,2.14 4.78,4.78 v 12.47 h 3.55 c 0.54,0 1.05,0.22 1.43,0.6 0.37,0.38 0.57,0.89 0.55,1.42 v 14.83 c 0,5.69 -4.63,10.32 -10.32,10.32 z M 157.82,33.95 c -0.42,0 -0.77,0.35 -0.77,0.77 v 14.85 c 0,5.01 4.08,9.09 9.09,9.09 h 21.16 c 5.01,0 9.09,-4.08 9.09,-9.09 V 34.72 c 0.01,-0.21 -0.07,-0.4 -0.21,-0.54 -0.14,-0.15 -0.34,-0.23 -0.54,-0.23 h -4.78 v -13.7 c 0,-1.96 -1.59,-3.55 -3.55,-3.55 h -21.16 c -1.96,0 -3.55,1.59 -3.55,3.55 v 13.7 z m 31.49,0 h -25.17 v -13.7 c 0,-1.1 0.9,-2 2,-2 h 21.16 c 1.1,0 2,0.9 2,2 v 13.7 z m -23.94,-1.23 h 22.71 V 20.25 c 0,-0.42 -0.35,-0.77 -0.77,-0.77 h -21.16 c -0.42,0 -0.77,0.35 -0.77,0.77 v 12.47 z"
           id="path22"
           inkscape:connector-curvature="0"
           style="fill:#ffffff" />
      </g>
      <g
         id="g28"
         transform="matrix(0.41491116,0,0,0.41491116,-66.756048,-1.0345223)">
        <path
           class="st1"
           d="m 169.27,25.73 v 3.45 c 0,0.76 0.63,1.39 1.39,1.39 0.76,0 1.39,-0.63 1.39,-1.39 v -3.45 z"
           id="path26"
           inkscape:connector-curvature="0"
           style="fill:#b1d3df" />
      </g>
      <g
         id="g32"
         transform="matrix(0.41491116,0,0,0.41491116,-66.756048,-1.0345223)">
        <path
           class="st1"
           d="m 172.03,26.2 v -2.86 c 0,-0.76 -0.63,-1.39 -1.39,-1.39 -0.76,0 -1.39,0.63 -1.39,1.39 v 2.86 z"
           id="path30"
           inkscape:connector-curvature="0"
           style="fill:#b1d3df" />
      </g>
      <g
         id="path4497_1_"
         transform="matrix(0.41491116,0,0,0.41491116,-66.756048,-1.0345223)">
        <path
           class="st0"
           d="m 179.95,47.91 c 0,0.75 -0.26,1.35 -0.79,1.87 -0.53,0.53 -1.15,0.79 -1.9,0.79 h -0.53 c -0.37,0 -0.53,0.18 -0.53,0.53 v 2.14 c 0,0.29 -0.11,0.57 -0.29,0.75 -0.22,0.22 -0.49,0.33 -0.79,0.33 h -0.53 c -0.29,0 -0.57,-0.11 -0.75,-0.33 -0.22,-0.18 -0.33,-0.45 -0.33,-0.75 V 41 c 0,-0.75 0.26,-1.35 0.79,-1.9 0.53,-0.53 1.12,-0.79 1.87,-0.79 h 1.04 c 0.75,0 1.35,0.26 1.9,0.79 0.53,0.53 0.79,1.15 0.79,1.9 v 6.93 h 0.05 z m -2.69,-0.56 v -5.83 c 0,-0.37 -0.18,-0.53 -0.53,-0.53 -0.37,0 -0.53,0.18 -0.53,0.53 v 5.87 c 0,0.37 0.18,0.53 0.53,0.53 0.37,-0.01 0.53,-0.19 0.53,-0.57 z"
           id="path34"
           inkscape:connector-curvature="0"
           style="fill:#ffffff" />
      </g>
    </g>
  </g>
</svg>
