<?xml version="1.0" encoding="UTF-8" standalone="no"?>
<!-- Generator: Adobe Illustrator 23.0.3, SVG Export Plug-In . SVG Version: 6.00 Build 0)  -->

<svg
   xmlns:dc="http://purl.org/dc/elements/1.1/"
   xmlns:cc="http://creativecommons.org/ns#"
   xmlns:rdf="http://www.w3.org/1999/02/22-rdf-syntax-ns#"
   xmlns:svg="http://www.w3.org/2000/svg"
   xmlns="http://www.w3.org/2000/svg"
   xmlns:sodipodi="http://sodipodi.sourceforge.net/DTD/sodipodi-0.dtd"
   xmlns:inkscape="http://www.inkscape.org/namespaces/inkscape"
   version="1.1"
   id="Layer_1"
   x="0px"
   y="0px"
   viewBox="0 0 255 90"
   xml:space="preserve"
   sodipodi:docname="2.svg"
   inkscape:version="0.92.5 (2060ec1f9f, 2020-04-08)"
   width="255"
   height="90"><metadata
   id="metadata68"><rdf:RDF><cc:Work
       rdf:about=""><dc:format>image/svg+xml</dc:format><dc:type
         rdf:resource="http://purl.org/dc/dcmitype/StillImage" /><dc:title></dc:title></cc:Work></rdf:RDF></metadata><defs
   id="defs66" /><sodipodi:namedview
   pagecolor="#ffffff"
   bordercolor="#666666"
   borderopacity="1"
   objecttolerance="10"
   gridtolerance="10"
   guidetolerance="10"
   inkscape:pageopacity="0"
   inkscape:pageshadow="2"
   inkscape:window-width="1920"
   inkscape:window-height="1028"
   id="namedview64"
   showgrid="false"
   inkscape:zoom="1.2156863"
   inkscape:cx="129.96774"
   inkscape:cy="49.875"
   inkscape:window-x="0"
   inkscape:window-y="25"
   inkscape:window-maximized="1"
   inkscape:current-layer="Layer_1" />
<style
   type="text/css"
   id="style2">
	.st0{fill:#FFFFFF;}
	.st1{fill:#30333A;}
	.st2{fill:#B1D3DF;}
</style>
<g
   id="g61"
   transform="matrix(1.6539952,0,0,1.6539952,-83.38439,-17.530406)">
	<g
   id="g27">
		<rect
   x="167.39"
   y="22.1"
   class="st0"
   width="10.92"
   height="14.44"
   id="rect4"
   style="fill:#ffffff" />
		<path
   class="st1"
   d="m 166.04,35.14 h 11.28 V 24.49 c 0,-0.62 -0.51,-1.13 -1.13,-1.13 H 166.04 V 21.1 h 10.15 c 1.87,0 3.39,1.52 3.39,3.39 v 11.78 c 0,0.62 -0.51,1.13 -1.13,1.13 h -12.41 z"
   id="path6"
   inkscape:connector-curvature="0"
   style="fill:#30333a" />
		<path
   class="st2"
   d="m 173.66,28.95 v 2.81 c 0,0.62 -0.51,1.13 -1.13,1.13 -0.62,0 -1.13,-0.51 -1.13,-1.13 v -2.81 z"
   id="path8"
   inkscape:connector-curvature="0"
   style="fill:#b1d3df" />
		<path
   class="st2"
   d="M 171.4,29.33 V 27 c 0,-0.62 0.51,-1.13 1.13,-1.13 0.62,0 1.13,0.51 1.13,1.13 v 2.33 z"
   id="path10"
   inkscape:connector-curvature="0"
   style="fill:#b1d3df" />
		
			<rect
   x="156.84"
   y="22.1"
   transform="rotate(-180,162.30255,29.3212)"
   class="st0"
   width="10.92"
   height="14.44"
   id="rect12"
   style="fill:#ffffff" />
		<g
   id="g18">
			<path
   class="st1"
   d="m 166.04,35.14 h 16.93 c 0.62,0 1.13,0.51 1.13,1.13 v 12.09 c 0,4.36 -3.54,7.9 -7.9,7.9 H 166.05 V 35.14 Z"
   id="path14"
   inkscape:connector-curvature="0"
   style="fill:#30333a" />
			<path
   class="st1"
   d="m 169.11,35.14 h -16.93 c -0.62,0 -1.13,0.51 -1.13,1.13 v 12.09 c 0,4.36 3.54,7.9 7.9,7.9 H 169.1 V 35.14 Z"
   id="path16"
   inkscape:connector-curvature="0"
   style="fill:#30333a" />
		</g>
		<path
   class="st1"
   d="M 169.11,35.14 H 157.83 V 24.49 c 0,-0.62 0.51,-1.13 1.13,-1.13 h 10.15 V 21.1 h -10.15 c -1.87,0 -3.39,1.52 -3.39,3.39 v 11.78 c 0,0.62 0.51,1.13 1.13,1.13 h 12.41 z"
   id="path20"
   inkscape:connector-curvature="0"
   style="fill:#30333a" />
		<path
   class="st2"
   d="m 161.5,28.95 v 2.81 c 0,0.62 0.51,1.13 1.13,1.13 0.62,0 1.13,-0.51 1.13,-1.13 v -2.81 z"
   id="path22"
   inkscape:connector-curvature="0"
   style="fill:#b1d3df" />
		<path
   class="st2"
   d="M 163.75,29.33 V 27 c 0,-0.62 -0.51,-1.13 -1.13,-1.13 -0.62,0 -1.13,0.51 -1.13,1.13 v 2.33 z"
   id="path24"
   inkscape:connector-curvature="0"
   style="fill:#b1d3df" />
		<path
   id="path4497_1_"
   class="st0"
   d="m 170.2,47.01 c 0,0.61 -0.21,1.1 -0.64,1.52 -0.43,0.43 -0.94,0.64 -1.55,0.64 h -0.43 c -0.3,0 -0.43,0.15 -0.43,0.43 v 1.74 c 0,0.24 -0.09,0.46 -0.24,0.61 -0.18,0.18 -0.4,0.27 -0.64,0.27 h -0.43 c -0.24,0 -0.46,-0.09 -0.61,-0.27 -0.18,-0.15 -0.27,-0.37 -0.27,-0.61 v -9.96 c 0,-0.61 0.21,-1.1 0.64,-1.55 0.43,-0.43 0.91,-0.64 1.52,-0.64 h 0.85 c 0.61,0 1.1,0.21 1.55,0.64 0.43,0.43 0.64,0.94 0.64,1.55 v 5.64 h 0.04 z m -2.19,-0.46 V 41.8 c 0,-0.3 -0.15,-0.43 -0.43,-0.43 -0.3,0 -0.43,0.15 -0.43,0.43 v 4.78 c 0,0.3 0.15,0.43 0.43,0.43 0.3,0 0.43,-0.15 0.43,-0.46 z"
   inkscape:connector-curvature="0"
   style="fill:#ffffff" />
	</g>
	<g
   id="g49">
		<path
   class="st2"
   d="m 89.1,22.33 c -0.45,-0.04 -0.91,-0.06 -1.37,-0.06 -9.06,0 -16.41,7.35 -16.41,16.41 0,9.06 7.35,16.41 16.41,16.41 0.46,0 0.92,-0.02 1.37,-0.06 z"
   id="path29"
   inkscape:connector-curvature="0"
   style="fill:#b1d3df" />
		<polygon
   class="st0"
   points="89.76,43.98 89.21,33.58 86.66,33.58 84.5,35.41 82.7,37.8 83.91,40.8 86.1,43.45 88.43,43.98 "
   id="polygon31"
   style="fill:#ffffff" />
		<circle
   class="st0"
   cx="88.089996"
   cy="38.68"
   r="5.8000002"
   id="circle33"
   style="fill:#ffffff" />
		<path
   class="st2"
   d="m 87.55,22.33 c 0.45,-0.04 0.91,-0.06 1.37,-0.06 9.06,0 16.41,7.35 16.41,16.41 0,9.06 -7.35,16.41 -16.41,16.41 -0.46,0 -0.92,-0.02 -1.37,-0.06 z"
   id="path35"
   inkscape:connector-curvature="0"
   style="fill:#b1d3df" />
		<polygon
   class="st0"
   points="86.88,43.98 87.44,33.58 89.99,33.58 92.15,35.41 93.95,37.8 92.74,40.8 90.55,43.45 88.22,43.98 "
   id="polygon37"
   style="fill:#ffffff" />
		<path
   class="st1"
   d="m 88.35,21.28 c -0.08,0 -0.17,0.01 -0.25,0.01 v 2.32 c 0.08,0 0.17,-0.01 0.25,-0.01 8.32,0.01 15.07,6.75 15.08,15.08 0,8.33 -6.75,15.08 -15.08,15.08 -0.08,0 -0.17,0 -0.25,-0.01 v 2.32 c 0.08,0 0.17,0.01 0.25,0.01 9.6,-0.01 17.39,-7.79 17.4,-17.4 0,-9.61 -7.79,-17.4 -17.4,-17.4 z"
   id="path39"
   inkscape:connector-curvature="0"
   style="fill:#30333a" />
		<circle
   class="st0"
   cx="88.559998"
   cy="38.68"
   r="5.8000002"
   id="circle41"
   style="fill:#ffffff" />
		<path
   class="st1"
   d="m 88.41,32.59 c -0.06,0 -0.12,0.01 -0.18,0.01 v 1.7 c 0.06,0 0.12,-0.01 0.18,-0.01 2.34,0 4.24,1.9 4.25,4.25 0,2.35 -1.9,4.25 -4.25,4.25 -0.06,0 -0.12,-0.01 -0.18,-0.01 v 1.7 c 0.06,0 0.12,0.01 0.18,0.01 3.28,0 5.94,-2.66 5.95,-5.95 -0.01,-3.29 -2.67,-5.95 -5.95,-5.95 z"
   id="path43"
   inkscape:connector-curvature="0"
   style="fill:#30333a" />
		<path
   class="st1"
   d="m 88.3,21.28 c 0.08,0 0.17,0.01 0.25,0.01 v 2.32 c -0.08,0 -0.17,-0.01 -0.25,-0.01 -8.32,0.01 -15.07,6.75 -15.08,15.08 0,8.33 6.75,15.08 15.08,15.08 0.08,0 0.17,0 0.25,-0.01 v 2.32 c -0.08,0 -0.17,0.01 -0.25,0.01 -9.6,-0.01 -17.39,-7.79 -17.4,-17.4 0,-9.61 7.79,-17.4 17.4,-17.4 z"
   id="path45"
   inkscape:connector-curvature="0"
   style="fill:#30333a" />
		<path
   class="st1"
   d="m 88.24,32.59 c 0.06,0 0.12,0.01 0.18,0.01 v 1.7 c -0.06,0 -0.12,-0.01 -0.18,-0.01 -2.34,0 -4.24,1.9 -4.25,4.25 0,2.35 1.9,4.25 4.25,4.25 0.06,0 0.12,-0.01 0.18,-0.01 v 1.7 c -0.06,0 -0.12,0.01 -0.18,0.01 -3.28,0 -5.94,-2.66 -5.95,-5.95 0,-3.29 2.66,-5.95 5.95,-5.95 z"
   id="path47"
   inkscape:connector-curvature="0"
   style="fill:#30333a" />
	</g>
	<g
   id="g59">
		<path
   class="st1"
   d="m 132.97,39.96 -5.17,-5.17 c -0.38,-0.38 -0.38,-0.99 0,-1.37 l 0.62,-0.62 c 0.38,-0.38 0.99,-0.38 1.37,0 l 5.17,5.17 c 0.38,0.38 0.38,0.99 0,1.37 l -0.62,0.62 c -0.38,0.38 -0.99,0.38 -1.37,0 z"
   id="path51"
   inkscape:connector-curvature="0"
   style="fill:#30333a" />
		<path
   class="st1"
   d="m 134.96,39.39 -5.17,5.17 c -0.38,0.38 -0.99,0.38 -1.37,0 l -0.62,-0.62 c -0.38,-0.38 -0.38,-0.99 0,-1.37 l 5.17,-5.17 c 0.38,-0.38 0.99,-0.38 1.37,0 l 0.62,0.62 c 0.38,0.37 0.38,0.99 0,1.37 z"
   id="path53"
   inkscape:connector-curvature="0"
   style="fill:#30333a" />
		<path
   class="st1"
   d="m 126.6,39.96 -5.17,-5.17 c -0.38,-0.38 -0.38,-0.99 0,-1.37 l 0.62,-0.62 c 0.38,-0.38 0.99,-0.38 1.37,0 l 5.17,5.17 c 0.38,0.38 0.38,0.99 0,1.37 l -0.62,0.62 c -0.38,0.38 -0.99,0.38 -1.37,0 z"
   id="path55"
   inkscape:connector-curvature="0"
   style="fill:#30333a" />
		<path
   class="st1"
   d="m 128.59,39.39 -5.17,5.17 c -0.38,0.38 -0.99,0.38 -1.37,0 l -0.62,-0.62 c -0.38,-0.38 -0.38,-0.99 0,-1.37 l 5.17,-5.17 c 0.38,-0.38 0.99,-0.38 1.37,0 l 0.62,0.62 c 0.38,0.37 0.38,0.99 0,1.37 z"
   id="path57"
   inkscape:connector-curvature="0"
   style="fill:#30333a" />
	</g>
</g>
</svg>