<?xml version="1.0" encoding="utf-8"?>
<!-- Generator: Adobe Illustrator 23.0.3, SVG Export Plug-In . SVG Version: 6.00 Build 0)  -->
<svg version="1.1" id="Layer_1" xmlns="http://www.w3.org/2000/svg" xmlns:xlink="http://www.w3.org/1999/xlink" x="0px" y="0px"
	 viewBox="0 0 255 99.75" style="enable-background:new 0 0 255 99.75;" xml:space="preserve">
<style type="text/css">
	.st0{fill:#FFFFFF;}
	.st1{fill:#30333A;}
	.st2{fill:#B1D3DF;}
</style>
<g>
	<g>
		<rect x="167.39" y="22.1" class="st0" width="10.92" height="14.44"/>
		<path class="st1" d="M166.04,35.14h11.28V24.49c0-0.62-0.51-1.13-1.13-1.13h-10.15V21.1h10.15c1.87,0,3.39,1.52,3.39,3.39v11.78
			c0,0.62-0.51,1.13-1.13,1.13h-12.41V35.14z"/>
		<path class="st2" d="M173.66,28.95v2.81c0,0.62-0.51,1.13-1.13,1.13s-1.13-0.51-1.13-1.13v-2.81H173.66z"/>
		<path class="st2" d="M171.4,29.33V27c0-0.62,0.51-1.13,1.13-1.13s1.13,0.51,1.13,1.13v2.33H171.4z"/>
		
			<rect x="156.84" y="22.1" transform="matrix(-1 -4.503876e-11 4.503876e-11 -1 324.6051 58.6424)" class="st0" width="10.92" height="14.44"/>
		<g>
			<path class="st1" d="M166.04,35.14h16.93c0.62,0,1.13,0.51,1.13,1.13v12.09c0,4.36-3.54,7.9-7.9,7.9h-10.15V35.14z"/>
			<path class="st1" d="M169.11,35.14h-16.93c-0.62,0-1.13,0.51-1.13,1.13v12.09c0,4.36,3.54,7.9,7.9,7.9h10.15V35.14z"/>
		</g>
		<path class="st1" d="M169.11,35.14h-11.28V24.49c0-0.62,0.51-1.13,1.13-1.13h10.15V21.1h-10.15c-1.87,0-3.39,1.52-3.39,3.39v11.78
			c0,0.62,0.51,1.13,1.13,1.13h12.41V35.14z"/>
		<path class="st2" d="M161.5,28.95v2.81c0,0.62,0.51,1.13,1.13,1.13s1.13-0.51,1.13-1.13v-2.81H161.5z"/>
		<path class="st2" d="M163.75,29.33V27c0-0.62-0.51-1.13-1.13-1.13s-1.13,0.51-1.13,1.13v2.33H163.75z"/>
		<path id="path4497_1_" class="st0" d="M170.2,47.01c0,0.61-0.21,1.1-0.64,1.52c-0.43,0.43-0.94,0.64-1.55,0.64h-0.43
			c-0.3,0-0.43,0.15-0.43,0.43v1.74c0,0.24-0.09,0.46-0.24,0.61c-0.18,0.18-0.4,0.27-0.64,0.27h-0.43c-0.24,0-0.46-0.09-0.61-0.27
			c-0.18-0.15-0.27-0.37-0.27-0.61v-9.96c0-0.61,0.21-1.1,0.64-1.55c0.43-0.43,0.91-0.64,1.52-0.64h0.85c0.61,0,1.1,0.21,1.55,0.64
			c0.43,0.43,0.64,0.94,0.64,1.55v5.64H170.2z M168.01,46.55V41.8c0-0.3-0.15-0.43-0.43-0.43c-0.3,0-0.43,0.15-0.43,0.43v4.78
			c0,0.3,0.15,0.43,0.43,0.43C167.88,47.01,168.01,46.86,168.01,46.55z"/>
	</g>
	<g>
		<path class="st2" d="M89.1,22.33c-0.45-0.04-0.91-0.06-1.37-0.06c-9.06,0-16.41,7.35-16.41,16.41c0,9.06,7.35,16.41,16.41,16.41
			c0.46,0,0.92-0.02,1.37-0.06V22.33z"/>
		<polygon class="st0" points="89.21,33.58 86.66,33.58 84.5,35.41 82.7,37.8 83.91,40.8 86.1,43.45 88.43,43.98 89.76,43.98 		"/>
		<circle class="st0" cx="88.09" cy="38.68" r="5.8"/>
		<path class="st2" d="M87.55,22.33c0.45-0.04,0.91-0.06,1.37-0.06c9.06,0,16.41,7.35,16.41,16.41c0,9.06-7.35,16.41-16.41,16.41
			c-0.46,0-0.92-0.02-1.37-0.06V22.33z"/>
		<polygon class="st0" points="87.44,33.58 89.99,33.58 92.15,35.41 93.95,37.8 92.74,40.8 90.55,43.45 88.22,43.98 86.88,43.98 		
			"/>
		<path class="st1" d="M88.35,21.28c-0.08,0-0.17,0.01-0.25,0.01v2.32c0.08,0,0.17-0.01,0.25-0.01c8.32,0.01,15.07,6.75,15.08,15.08
			c0,8.33-6.75,15.08-15.08,15.08c-0.08,0-0.17,0-0.25-0.01v2.32c0.08,0,0.17,0.01,0.25,0.01c9.6-0.01,17.39-7.79,17.4-17.4
			C105.75,29.07,97.96,21.28,88.35,21.28z"/>
		<circle class="st0" cx="88.56" cy="38.68" r="5.8"/>
		<path class="st1" d="M88.41,32.59c-0.06,0-0.12,0.01-0.18,0.01v1.7c0.06,0,0.12-0.01,0.18-0.01c2.34,0,4.24,1.9,4.25,4.25
			c0,2.35-1.9,4.25-4.25,4.25c-0.06,0-0.12-0.01-0.18-0.01v1.7c0.06,0,0.12,0.01,0.18,0.01c3.28,0,5.94-2.66,5.95-5.95
			C94.35,35.25,91.69,32.59,88.41,32.59z"/>
		<path class="st1" d="M88.3,21.28c0.08,0,0.17,0.01,0.25,0.01v2.32c-0.08,0-0.17-0.01-0.25-0.01c-8.32,0.01-15.07,6.75-15.08,15.08
			c0,8.33,6.75,15.08,15.08,15.08c0.08,0,0.17,0,0.25-0.01v2.32c-0.08,0-0.17,0.01-0.25,0.01c-9.6-0.01-17.39-7.79-17.4-17.4
			C70.9,29.07,78.69,21.28,88.3,21.28z"/>
		<path class="st1" d="M88.24,32.59c0.06,0,0.12,0.01,0.18,0.01v1.7c-0.06,0-0.12-0.01-0.18-0.01c-2.34,0-4.24,1.9-4.25,4.25
			c0,2.35,1.9,4.25,4.25,4.25c0.06,0,0.12-0.01,0.18-0.01v1.7c-0.06,0-0.12,0.01-0.18,0.01c-3.28,0-5.94-2.66-5.95-5.95
			C82.29,35.25,84.95,32.59,88.24,32.59z"/>
	</g>
	<g>
		<path class="st1" d="M132.97,39.96l-5.17-5.17c-0.38-0.38-0.38-0.99,0-1.37l0.62-0.62c0.38-0.38,0.99-0.38,1.37,0l5.17,5.17
			c0.38,0.38,0.38,0.99,0,1.37l-0.62,0.62C133.96,40.34,133.35,40.34,132.97,39.96z"/>
		<path class="st1" d="M134.96,39.39l-5.17,5.17c-0.38,0.38-0.99,0.38-1.37,0l-0.62-0.62c-0.38-0.38-0.38-0.99,0-1.37l5.17-5.17
			c0.38-0.38,0.99-0.38,1.37,0l0.62,0.62C135.34,38.39,135.34,39.01,134.96,39.39z"/>
		<path class="st1" d="M126.6,39.96l-5.17-5.17c-0.38-0.38-0.38-0.99,0-1.37l0.62-0.62c0.38-0.38,0.99-0.38,1.37,0l5.17,5.17
			c0.38,0.38,0.38,0.99,0,1.37l-0.62,0.62C127.59,40.34,126.98,40.34,126.6,39.96z"/>
		<path class="st1" d="M128.59,39.39l-5.17,5.17c-0.38,0.38-0.99,0.38-1.37,0l-0.62-0.62c-0.38-0.38-0.38-0.99,0-1.37l5.17-5.17
			c0.38-0.38,0.99-0.38,1.37,0l0.62,0.62C128.97,38.39,128.97,39.01,128.59,39.39z"/>
	</g>
</g>
</svg>
