<?xml version="1.0" encoding="utf-8"?>
<!-- Generator: Adobe Illustrator 23.0.3, SVG Export Plug-In . SVG Version: 6.00 Build 0)  -->
<svg version="1.1" id="Layer_1" xmlns="http://www.w3.org/2000/svg" xmlns:xlink="http://www.w3.org/1999/xlink" x="0px" y="0px"
	 viewBox="0 0 64 64" style="enable-background:new 0 0 64 64;" xml:space="preserve">
<style type="text/css">
	.st0{fill:#FFFFFF;}
	.st1{fill:#B1D3DF;}
	.st2{fill:#30333A;}
</style>
<g>
	<rect x="34.08" y="2.62" class="st0" width="19.36" height="25.59"/>
	<path class="st1" d="M32.89,2.73c-0.81-0.07-1.63-0.11-2.46-0.11C14.21,2.62,1.06,15.78,1.06,32c0,16.22,13.15,29.38,29.38,29.38
		c0.83,0,1.65-0.04,2.46-0.11V2.73z"/>
	<polygon class="st0" points="33.09,22.87 28.52,22.87 24.66,26.15 21.44,30.42 23.61,35.8 27.53,40.54 31.69,41.48 34.08,41.48 	
		"/>
	<path class="st2" d="M31.46,0.86c0.15,0,0.3,0.01,0.45,0.01v4.15c-0.15,0-0.3-0.01-0.45-0.01C16.56,5.03,4.49,17.1,4.47,32
		c0,14.91,12.08,26.99,26.99,26.99c0.15,0,0.3-0.01,0.45-0.01v4.15c-0.15,0-0.3,0.01-0.45,0.01C14.27,63.12,0.34,49.19,0.32,32
		C0.32,14.8,14.26,0.86,31.46,0.86z"/>
	<circle class="st0" cx="31.09" cy="32" r="10.38"/>
	
		<rect x="2.63" y="30.08" transform="matrix(-4.487007e-11 1 -1 -4.487007e-11 65.7616 -1.6034)" class="st2" width="62.11" height="4"/>
	<path class="st2" d="M31.69,25.73h29.99c1.1,0,2,0.9,2,2v21.42c0,7.72-6.28,14-14,14H31.69V25.73z"/>
	<path class="st2" d="M31.69,25.73h19.99V6.86c0-1.1-0.9-2-2-2H31.69v-4h17.99c3.31,0,6,2.69,6,6v20.87c0,1.1-0.9,2-2,2H31.69V25.73
		z"/>
	<path class="st1" d="M45.19,14.75v4.97c0,1.1-0.9,2-2,2s-2-0.9-2-2v-4.97H45.19z"/>
	<path class="st1" d="M41.19,15.44V11.3c0-1.1,0.9-2,2-2s2,0.9,2,2v4.13H41.19z"/>
	<path id="path4497_2_" class="st0" d="M52.33,46.6c0,1.08-0.38,1.94-1.13,2.7c-0.76,0.76-1.67,1.13-2.75,1.13h-0.76
		c-0.54,0-0.76,0.27-0.76,0.76v3.08c0,0.43-0.16,0.81-0.43,1.08c-0.32,0.32-0.7,0.49-1.13,0.49h-0.76c-0.43,0-0.81-0.16-1.08-0.49
		c-0.32-0.27-0.49-0.65-0.49-1.08V36.62c0-1.08,0.38-1.94,1.13-2.75c0.76-0.76,1.62-1.13,2.7-1.13h1.51c1.08,0,1.94,0.38,2.75,1.13
		c0.76,0.76,1.13,1.67,1.13,2.75v9.99H52.33z M48.44,45.79v-8.42c0-0.54-0.27-0.76-0.76-0.76c-0.54,0-0.76,0.27-0.76,0.76v8.47
		c0,0.54,0.27,0.76,0.76,0.76C48.23,46.6,48.44,46.33,48.44,45.79z"/>
	<path class="st2" d="M31.35,21.09c0.11,0,0.22,0.01,0.33,0.02v3.04c-0.11,0-0.22-0.02-0.33-0.02c-4.2,0.01-7.6,3.41-7.6,7.6
		c0,4.2,3.4,7.6,7.6,7.6c0.11,0,0.22-0.01,0.33-0.02v3.04c-0.11,0-0.22,0.02-0.33,0.02c-5.88-0.01-10.64-4.77-10.65-10.65
		C20.71,25.86,25.48,21.09,31.35,21.09z"/>
</g>
</svg>
