<?xml version="1.0" encoding="UTF-8" standalone="no"?>
<svg
   xmlns:dc="http://purl.org/dc/elements/1.1/"
   xmlns:cc="http://creativecommons.org/ns#"
   xmlns:rdf="http://www.w3.org/1999/02/22-rdf-syntax-ns#"
   xmlns:svg="http://www.w3.org/2000/svg"
   xmlns="http://www.w3.org/2000/svg"
   xmlns:sodipodi="http://sodipodi.sourceforge.net/DTD/sodipodi-0.dtd"
   xmlns:inkscape="http://www.inkscape.org/namespaces/inkscape"
   width="36"
   height="36"
   viewBox="0 0 9.5249998 9.5250003"
   version="1.1"
   id="svg955"
   inkscape:version="1.0.2 (e86c870879, 2021-01-15)"
   sodipodi:docname="iso.svg">
  <defs
     id="defs949" />
  <sodipodi:namedview
     id="base"
     pagecolor="#ffffff"
     bordercolor="#666666"
     borderopacity="1.0"
     inkscape:pageopacity="0.0"
     inkscape:pageshadow="2"
     inkscape:zoom="5.6"
     inkscape:cx="22.271149"
     inkscape:cy="-11.054538"
     inkscape:document-units="mm"
     inkscape:current-layer="layer1"
     inkscape:document-rotation="0"
     showgrid="false"
     units="px"
     inkscape:window-width="1426"
     inkscape:window-height="891"
     inkscape:window-x="0"
     inkscape:window-y="0"
     inkscape:window-maximized="0" />
  <metadata
     id="metadata952">
    <rdf:RDF>
      <cc:Work
         rdf:about="">
        <dc:format>image/svg+xml</dc:format>
        <dc:type
           rdf:resource="http://purl.org/dc/dcmitype/StillImage" />
        <dc:title></dc:title>
      </cc:Work>
    </rdf:RDF>
  </metadata>
  <g
     inkscape:label="Layer 1"
     inkscape:groupmode="layer"
     id="layer1">
    <g
       id="g1604"
       transform="matrix(0.20177141,0,0,0.20587758,-2.10133,-13.135369)">
      <g
         id="g39"
         transform="matrix(1.0065332,0,0,1.0065332,-45.885785,49.003319)">
        <path
           class="st1"
           d="m 80.33,17.6 c -0.55,-0.05 -1.12,-0.07 -1.68,-0.07 -11.13,0 -20.16,9.03 -20.16,20.16 0,11.13 9.03,20.16 20.16,20.16 0.57,0 1.13,-0.02 1.68,-0.07 z"
           id="path37"
           inkscape:connector-curvature="0"
           style="fill:#b1d3df" />
      </g>
      <g
         id="g43"
         transform="matrix(1.0065332,0,0,1.0065332,-45.885785,49.003319)">
        <polygon
           class="st0"
           points="79.51,44.19 81.14,44.19 80.47,31.42 77.34,31.42 74.68,33.66 72.47,36.6 73.96,40.28 76.65,43.54 "
           id="polygon41"
           style="fill:#ffffff" />
      </g>
      <g
         id="g47"
         transform="matrix(1.0065332,0,0,1.0065332,-45.885785,49.003319)">
        <circle
           class="st0"
           cx="79.089996"
           cy="37.68"
           r="7.1199999"
           id="circle45"
           style="fill:#ffffff" />
      </g>
      <g
         id="g51"
         transform="matrix(1.0065332,0,0,1.0065332,-45.885785,49.003319)">
        <path
           class="st1"
           d="m 78.43,17.6 c 0.55,-0.05 1.12,-0.07 1.68,-0.07 11.13,0 20.16,9.03 20.16,20.16 0,11.13 -9.03,20.16 -20.16,20.16 -0.57,0 -1.13,-0.02 -1.68,-0.07 0,-0.02 0,-40.18 0,-40.18 z"
           id="path49"
           inkscape:connector-curvature="0"
           style="fill:#b1d3df" />
      </g>
      <g
         id="g55"
         transform="matrix(1.0065332,0,0,1.0065332,-45.885785,49.003319)">
        <polygon
           class="st0"
           points="79.25,44.19 77.61,44.19 78.29,31.42 81.43,31.42 84.08,33.66 86.29,36.6 84.81,40.28 82.11,43.54 "
           id="polygon53"
           style="fill:#ffffff" />
      </g>
      <g
         id="g59"
         transform="matrix(1.0065332,0,0,1.0065332,-45.885785,49.003319)">
        <circle
           class="st0"
           cx="79.669998"
           cy="37.68"
           r="7.1199999"
           id="circle57"
           style="fill:#ffffff" />
      </g>
      <g
         id="g63"
         transform="matrix(1.0065332,0,0,1.0065332,-45.885785,49.003319)">
        <path
           class="st2"
           d="m 79.49,30.2 c -0.07,0 -0.15,0.01 -0.22,0.01 v 2.09 c 0.07,0 0.15,-0.01 0.22,-0.01 2.87,0 5.21,2.33 5.22,5.22 0,2.89 -2.33,5.22 -5.22,5.22 -0.07,0 -0.15,-0.01 -0.22,-0.01 v 2.09 c 0.07,0 0.15,0.01 0.22,0.01 4.03,0 7.3,-3.27 7.31,-7.31 -0.02,-4.04 -3.28,-7.31 -7.31,-7.31 z"
           id="path61"
           inkscape:connector-curvature="0"
           style="fill:#30333a" />
      </g>
      <g
         id="g67"
         transform="matrix(1.0065332,0,0,1.0065332,-45.885785,49.003319)">
        <path
           class="st2"
           d="m 100.79,37.68 c 0,-11.72 -9.44,-21.23 -21.13,-21.36 v 0 c -0.01,0 -0.01,0 -0.02,0 -0.08,0 -0.15,-0.01 -0.23,-0.01 -0.01,0 -0.02,0 -0.03,0 -0.01,0 -0.02,0 -0.03,0 -0.08,0 -0.15,0.01 -0.23,0.01 -0.01,0 -0.01,0 -0.02,0 v 0 C 67.41,16.45 57.97,25.96 57.97,37.68 57.98,49.4 67.42,58.9 79.1,59.04 v 0 c 0.01,0 0.02,0 0.03,0 0.07,0 0.14,0.01 0.21,0.01 0.01,0 0.02,0 0.03,0 0.01,0 0.02,0 0.03,0 0.07,0 0.14,-0.01 0.21,-0.01 0.01,0 0.02,0 0.03,0 v 0 C 91.34,58.9 100.77,49.4 100.79,37.68 Z M 79.65,56.19 c -0.09,0.01 -0.18,0.01 -0.27,0.01 -0.09,0 -0.18,0 -0.27,-0.01 C 68.99,56.06 60.82,47.83 60.82,37.68 60.83,27.52 69.01,19.29 79.13,19.17 c 0.08,0 0.16,-0.01 0.24,-0.01 0.08,0 0.16,0.01 0.24,0.01 10.12,0.13 18.3,8.35 18.31,18.51 0.02,10.15 -8.15,18.38 -18.27,18.51 z"
           id="path65"
           inkscape:connector-curvature="0"
           style="fill:#30333a" />
      </g>
      <g
         id="g71"
         transform="matrix(1.0065332,0,0,1.0065332,-45.885785,49.003319)">
        <path
           class="st2"
           d="m 79.28,30.2 c 0.07,0 0.15,0.01 0.22,0.01 v 2.09 c -0.07,0 -0.15,-0.01 -0.22,-0.01 -2.87,0 -5.21,2.33 -5.22,5.22 0,2.89 2.33,5.22 5.22,5.22 0.07,0 0.15,-0.01 0.22,-0.01 v 2.09 c -0.07,0 -0.15,0.01 -0.22,0.01 -4.03,0 -7.3,-3.27 -7.31,-7.31 0,-4.04 3.27,-7.31 7.31,-7.31 z"
           id="path69"
           inkscape:connector-curvature="0"
           style="fill:#30333a" />
      </g>
      <g
         id="g89"
         transform="matrix(1.0065332,0,0,1.0065332,-45.885785,49.003319)">
        <path
           class="st0"
           d="M 79.58,15.7 H 79.1 c -11.98,0.14 -21.73,9.99 -21.73,21.98 0.01,11.97 9.76,21.82 21.7,21.97 l 0.35,0.02 0.25,-0.01 C 91.64,59.51 101.39,49.65 101.4,37.69 v 0 C 101.4,25.7 91.65,15.84 79.58,15.7 Z m 0.05,42.73 -0.19,0.01 -0.32,-0.01 C 67.82,58.29 58.61,48.98 58.6,37.68 58.6,26.37 67.81,17.06 79.14,16.93 l 0.21,-0.01 0.11,0.01 h 0.04 l 0.16,0.01 c 11.32,0.13 20.52,9.44 20.52,20.75 -0.02,11.29 -9.23,20.6 -20.55,20.74 z"
           id="path87"
           inkscape:connector-curvature="0"
           style="fill:#ffffff" />
      </g>
    </g>
  </g>
</svg>
