<?xml version="1.0" encoding="UTF-8" standalone="no"?>
<!-- Generator: Adobe Illustrator 23.0.3, SVG Export Plug-In . SVG Version: 6.00 Build 0)  -->

<svg
   xmlns:dc="http://purl.org/dc/elements/1.1/"
   xmlns:cc="http://creativecommons.org/ns#"
   xmlns:rdf="http://www.w3.org/1999/02/22-rdf-syntax-ns#"
   xmlns:svg="http://www.w3.org/2000/svg"
   xmlns="http://www.w3.org/2000/svg"
   xmlns:sodipodi="http://sodipodi.sourceforge.net/DTD/sodipodi-0.dtd"
   xmlns:inkscape="http://www.inkscape.org/namespaces/inkscape"
   version="1.1"
   id="Layer_1"
   x="0px"
   y="0px"
   viewBox="0 0 255 99.75"
   style="enable-background:new 0 0 255 99.75;"
   xml:space="preserve"
   sodipodi:docname="main.svg"
   inkscape:version="0.92.5 (2060ec1f9f, 2020-04-08)"><metadata
   id="metadata98"><rdf:RDF><cc:Work
       rdf:about=""><dc:format>image/svg+xml</dc:format><dc:type
         rdf:resource="http://purl.org/dc/dcmitype/StillImage" /><dc:title></dc:title></cc:Work></rdf:RDF></metadata><defs
   id="defs96" /><sodipodi:namedview
   pagecolor="#ffffff"
   bordercolor="#666666"
   borderopacity="1"
   objecttolerance="10"
   gridtolerance="10"
   guidetolerance="10"
   inkscape:pageopacity="0"
   inkscape:pageshadow="2"
   inkscape:window-width="1920"
   inkscape:window-height="1029"
   id="namedview94"
   showgrid="false"
   inkscape:zoom="3.43848"
   inkscape:cx="93.821636"
   inkscape:cy="44.685933"
   inkscape:window-x="0"
   inkscape:window-y="25"
   inkscape:window-maximized="1"
   inkscape:current-layer="Layer_1" />
<style
   type="text/css"
   id="style2">
	.st0{fill:#FFFFFF;}
	.st1{fill:#B1D3DF;}
	.st2{fill:#30333A;}
</style>
<g
   id="g91"
   transform="matrix(1.5681682,0,0,1.5681682,-72.434678,-9.2135778)">
	<g
   id="g6">
		<rect
   x="176.5"
   y="17.309999"
   class="st0"
   width="13.41"
   height="17.74"
   id="rect4"
   style="fill:#ffffff" />
	</g>
	<g
   id="g10">
		<path
   class="st1"
   d="m 184.2,25.73 v 3.45 c 0,0.76 -0.63,1.39 -1.39,1.39 -0.76,0 -1.39,-0.63 -1.39,-1.39 v -3.45 z"
   id="path8"
   inkscape:connector-curvature="0"
   style="fill:#b1d3df" />
	</g>
	<g
   id="g14">
		<path
   class="st1"
   d="m 181.43,26.2 v -2.86 c 0,-0.76 0.63,-1.39 1.39,-1.39 0.76,0 1.39,0.63 1.39,1.39 v 2.86 z"
   id="path12"
   inkscape:connector-curvature="0"
   style="fill:#b1d3df" />
	</g>
	<g
   id="g18">
		<rect
   x="163.55"
   y="17.32"
   class="st0"
   width="13.41"
   height="17.74"
   id="rect16"
   style="fill:#ffffff" />
	</g>
	<g
   id="g24">
		<path
   class="st2"
   d="m 195.64,33.33 h -4.16 V 20.25 c 0,-2.3 -1.87,-4.16 -4.16,-4.16 h -8.7 -3.77 -8.7 c -2.3,0 -4.16,1.87 -4.16,4.16 v 13.08 h -4.16 c -0.76,0 -1.39,0.63 -1.39,1.39 v 14.85 c 0,5.36 4.35,9.7 9.7,9.7 h 8.7 3.77 8.7 c 5.36,0 9.7,-4.35 9.7,-9.7 V 34.72 c 0.02,-0.76 -0.61,-1.39 -1.37,-1.39 z M 164.76,20.25 c 0,-0.76 0.63,-1.39 1.39,-1.39 h 8.7 3.77 8.7 c 0.76,0 1.39,0.63 1.39,1.39 v 13.08 h -10.08 -3.77 -10.08 V 20.25 Z"
   id="path20"
   inkscape:connector-curvature="0"
   style="fill:#30333a" />
		<path
   class="st0"
   d="m 187.3,59.89 h -21.16 c -5.69,0 -10.32,-4.63 -10.32,-10.32 V 34.72 c 0,-1.1 0.9,-2 2,-2 h 3.55 V 20.25 c 0,-2.63 2.14,-4.78 4.78,-4.78 h 21.16 c 2.63,0 4.78,2.14 4.78,4.78 v 12.47 h 3.55 c 0.54,0 1.05,0.22 1.43,0.6 0.37,0.38 0.57,0.89 0.55,1.42 v 14.83 c 0,5.69 -4.63,10.32 -10.32,10.32 z M 157.82,33.95 c -0.42,0 -0.77,0.35 -0.77,0.77 v 14.85 c 0,5.01 4.08,9.09 9.09,9.09 h 21.16 c 5.01,0 9.09,-4.08 9.09,-9.09 V 34.72 c 0.01,-0.21 -0.07,-0.4 -0.21,-0.54 -0.14,-0.15 -0.34,-0.23 -0.54,-0.23 h -4.78 v -13.7 c 0,-1.96 -1.59,-3.55 -3.55,-3.55 h -21.16 c -1.96,0 -3.55,1.59 -3.55,3.55 v 13.7 z m 31.49,0 h -25.17 v -13.7 c 0,-1.1 0.9,-2 2,-2 h 21.16 c 1.1,0 2,0.9 2,2 v 13.7 z m -23.94,-1.23 h 22.71 V 20.25 c 0,-0.42 -0.35,-0.77 -0.77,-0.77 h -21.16 c -0.42,0 -0.77,0.35 -0.77,0.77 v 12.47 z"
   id="path22"
   inkscape:connector-curvature="0"
   style="fill:#ffffff" />
	</g>
	<g
   id="g28">
		<path
   class="st1"
   d="m 169.27,25.73 v 3.45 c 0,0.76 0.63,1.39 1.39,1.39 0.76,0 1.39,-0.63 1.39,-1.39 v -3.45 z"
   id="path26"
   inkscape:connector-curvature="0"
   style="fill:#b1d3df" />
	</g>
	<g
   id="g32">
		<path
   class="st1"
   d="m 172.03,26.2 v -2.86 c 0,-0.76 -0.63,-1.39 -1.39,-1.39 -0.76,0 -1.39,0.63 -1.39,1.39 v 2.86 z"
   id="path30"
   inkscape:connector-curvature="0"
   style="fill:#b1d3df" />
	</g>
	<g
   id="path4497_1_">
		<path
   class="st0"
   d="m 179.95,47.91 c 0,0.75 -0.26,1.35 -0.79,1.87 -0.53,0.53 -1.15,0.79 -1.9,0.79 h -0.53 c -0.37,0 -0.53,0.18 -0.53,0.53 v 2.14 c 0,0.29 -0.11,0.57 -0.29,0.75 -0.22,0.22 -0.49,0.33 -0.79,0.33 h -0.53 c -0.29,0 -0.57,-0.11 -0.75,-0.33 -0.22,-0.18 -0.33,-0.45 -0.33,-0.75 V 41 c 0,-0.75 0.26,-1.35 0.79,-1.9 0.53,-0.53 1.12,-0.79 1.87,-0.79 h 1.04 c 0.75,0 1.35,0.26 1.9,0.79 0.53,0.53 0.79,1.15 0.79,1.9 v 6.93 h 0.05 z m -2.69,-0.56 v -5.83 c 0,-0.37 -0.18,-0.53 -0.53,-0.53 -0.37,0 -0.53,0.18 -0.53,0.53 v 5.87 c 0,0.37 0.18,0.53 0.53,0.53 0.37,-0.01 0.53,-0.19 0.53,-0.57 z"
   id="path34"
   inkscape:connector-curvature="0"
   style="fill:#ffffff" />
	</g>
	<g
   id="g39">
		<path
   class="st1"
   d="m 80.33,17.6 c -0.55,-0.05 -1.12,-0.07 -1.68,-0.07 -11.13,0 -20.16,9.03 -20.16,20.16 0,11.13 9.03,20.16 20.16,20.16 0.57,0 1.13,-0.02 1.68,-0.07 z"
   id="path37"
   inkscape:connector-curvature="0"
   style="fill:#b1d3df" />
	</g>
	<g
   id="g43">
		<polygon
   class="st0"
   points="79.51,44.19 81.14,44.19 80.47,31.42 77.34,31.42 74.68,33.66 72.47,36.6 73.96,40.28 76.65,43.54 "
   id="polygon41"
   style="fill:#ffffff" />
	</g>
	<g
   id="g47">
		<circle
   class="st0"
   cx="79.089996"
   cy="37.68"
   r="7.1199999"
   id="circle45"
   style="fill:#ffffff" />
	</g>
	<g
   id="g51">
		<path
   class="st1"
   d="m 78.43,17.6 c 0.55,-0.05 1.12,-0.07 1.68,-0.07 11.13,0 20.16,9.03 20.16,20.16 0,11.13 -9.03,20.16 -20.16,20.16 -0.57,0 -1.13,-0.02 -1.68,-0.07 0,-0.02 0,-40.18 0,-40.18 z"
   id="path49"
   inkscape:connector-curvature="0"
   style="fill:#b1d3df" />
	</g>
	<g
   id="g55">
		<polygon
   class="st0"
   points="79.25,44.19 77.61,44.19 78.29,31.42 81.43,31.42 84.08,33.66 86.29,36.6 84.81,40.28 82.11,43.54 "
   id="polygon53"
   style="fill:#ffffff" />
	</g>
	<g
   id="g59">
		<circle
   class="st0"
   cx="79.669998"
   cy="37.68"
   r="7.1199999"
   id="circle57"
   style="fill:#ffffff" />
	</g>
	<g
   id="g63">
		<path
   class="st2"
   d="m 79.49,30.2 c -0.07,0 -0.15,0.01 -0.22,0.01 v 2.09 c 0.07,0 0.15,-0.01 0.22,-0.01 2.87,0 5.21,2.33 5.22,5.22 0,2.89 -2.33,5.22 -5.22,5.22 -0.07,0 -0.15,-0.01 -0.22,-0.01 v 2.09 c 0.07,0 0.15,0.01 0.22,0.01 4.03,0 7.3,-3.27 7.31,-7.31 -0.02,-4.04 -3.28,-7.31 -7.31,-7.31 z"
   id="path61"
   inkscape:connector-curvature="0"
   style="fill:#30333a" />
	</g>
	<g
   id="g67">
		<path
   class="st2"
   d="m 100.79,37.68 c 0,-11.72 -9.44,-21.23 -21.13,-21.36 v 0 c -0.01,0 -0.01,0 -0.02,0 -0.08,0 -0.15,-0.01 -0.23,-0.01 -0.01,0 -0.02,0 -0.03,0 -0.01,0 -0.02,0 -0.03,0 -0.08,0 -0.15,0.01 -0.23,0.01 -0.01,0 -0.01,0 -0.02,0 v 0 C 67.41,16.45 57.97,25.96 57.97,37.68 57.98,49.4 67.42,58.9 79.1,59.04 v 0 c 0.01,0 0.02,0 0.03,0 0.07,0 0.14,0.01 0.21,0.01 0.01,0 0.02,0 0.03,0 0.01,0 0.02,0 0.03,0 0.07,0 0.14,-0.01 0.21,-0.01 0.01,0 0.02,0 0.03,0 v 0 C 91.34,58.9 100.77,49.4 100.79,37.68 Z M 79.65,56.19 c -0.09,0.01 -0.18,0.01 -0.27,0.01 -0.09,0 -0.18,0 -0.27,-0.01 C 68.99,56.06 60.82,47.83 60.82,37.68 60.83,27.52 69.01,19.29 79.13,19.17 c 0.08,0 0.16,-0.01 0.24,-0.01 0.08,0 0.16,0.01 0.24,0.01 10.12,0.13 18.3,8.35 18.31,18.51 0.02,10.15 -8.15,18.38 -18.27,18.51 z"
   id="path65"
   inkscape:connector-curvature="0"
   style="fill:#30333a" />
	</g>
	<g
   id="g71">
		<path
   class="st2"
   d="m 79.28,30.2 c 0.07,0 0.15,0.01 0.22,0.01 v 2.09 c -0.07,0 -0.15,-0.01 -0.22,-0.01 -2.87,0 -5.21,2.33 -5.22,5.22 0,2.89 2.33,5.22 5.22,5.22 0.07,0 0.15,-0.01 0.22,-0.01 v 2.09 c -0.07,0 -0.15,0.01 -0.22,0.01 -4.03,0 -7.3,-3.27 -7.31,-7.31 0,-4.04 3.27,-7.31 7.31,-7.31 z"
   id="path69"
   inkscape:connector-curvature="0"
   style="fill:#30333a" />
	</g>
	<g
   id="g85">
		<g
   id="g77">
			<path
   class="st2"
   d="m 136.67,36.81 -6.35,-6.35 c -0.47,-0.47 -1.22,-0.47 -1.68,0 l -0.76,0.76 c -0.47,0.47 -0.47,1.22 0,1.68 l 4.78,4.78 -4.78,4.78 c -0.47,0.47 -0.47,1.22 0,1.68 l 0.76,0.76 c 0.47,0.47 1.22,0.47 1.68,0 l 6.35,-6.35 c 0.24,-0.24 0.35,-0.56 0.34,-0.87 0.01,-0.32 -0.1,-0.63 -0.34,-0.87 z"
   id="path73"
   inkscape:connector-curvature="0"
   style="fill:#30333a" />
			<path
   class="st0"
   d="m 129.47,45.86 c -0.46,0 -0.92,-0.18 -1.28,-0.53 l -0.76,-0.76 c -0.7,-0.7 -0.7,-1.85 0,-2.55 l 4.35,-4.34 -4.34,-4.34 c -0.7,-0.7 -0.7,-1.85 0,-2.55 l 0.76,-0.76 c 0.7,-0.7 1.85,-0.7 2.55,0 l 6.35,6.35 c 0.35,0.35 0.54,0.82 0.52,1.32 0.01,0.47 -0.17,0.94 -0.52,1.29 l -6.35,6.35 c -0.35,0.35 -0.81,0.52 -1.28,0.52 z m 0,-15.14 c -0.15,0 -0.29,0.06 -0.41,0.17 l -0.76,0.76 c -0.23,0.23 -0.23,0.59 0,0.81 l 5.21,5.21 -5.21,5.21 c -0.23,0.23 -0.23,0.59 0,0.81 l 0.76,0.76 c 0.23,0.23 0.59,0.23 0.81,0 l 6.35,-6.35 c 0.11,-0.11 0.17,-0.26 0.16,-0.42 0,-0.19 -0.05,-0.34 -0.16,-0.45 l -6.35,-6.35 c -0.1,-0.1 -0.25,-0.16 -0.4,-0.16 z"
   id="path75"
   inkscape:connector-curvature="0"
   style="fill:#ffffff" />
		</g>
		<g
   id="g83">
			<path
   class="st2"
   d="m 129.19,37.68 c 0.01,-0.31 -0.1,-0.63 -0.34,-0.87 l -6.35,-6.35 c -0.47,-0.47 -1.22,-0.47 -1.68,0 l -0.76,0.76 c -0.47,0.47 -0.47,1.22 0,1.68 l 4.78,4.78 -4.78,4.78 c -0.47,0.47 -0.47,1.22 0,1.68 l 0.76,0.76 c 0.47,0.47 1.22,0.47 1.68,0 l 6.35,-6.35 c 0.23,-0.24 0.34,-0.56 0.34,-0.87 z"
   id="path79"
   inkscape:connector-curvature="0"
   style="fill:#30333a" />
			<path
   class="st0"
   d="m 121.65,45.86 c -0.46,0 -0.92,-0.18 -1.28,-0.53 l -0.76,-0.76 c -0.34,-0.34 -0.53,-0.79 -0.53,-1.28 0,-0.48 0.19,-0.93 0.53,-1.28 l 4.34,-4.34 -4.34,-4.34 c -0.34,-0.34 -0.53,-0.79 -0.53,-1.28 0,-0.48 0.19,-0.93 0.53,-1.28 l 0.76,-0.76 c 0.7,-0.7 1.85,-0.7 2.55,0 l 6.35,6.35 c 0.35,0.35 0.53,0.81 0.52,1.3 0.01,0.5 -0.18,0.96 -0.52,1.31 l -6.35,6.35 c -0.35,0.37 -0.81,0.54 -1.27,0.54 z m 0,-15.14 c -0.15,0 -0.29,0.06 -0.41,0.17 l -0.76,0.76 c -0.11,0.11 -0.17,0.25 -0.17,0.41 0,0.16 0.06,0.3 0.17,0.41 l 5.21,5.21 -5.21,5.21 c -0.11,0.11 -0.17,0.25 -0.17,0.41 0,0.15 0.06,0.3 0.17,0.41 l 0.76,0.76 c 0.23,0.23 0.59,0.23 0.81,0 l 6.35,-6.35 c 0.11,-0.11 0.17,-0.26 0.16,-0.42 v -0.03 c 0,-0.16 -0.05,-0.31 -0.16,-0.42 l -6.35,-6.35 c -0.11,-0.12 -0.25,-0.18 -0.4,-0.18 z"
   id="path81"
   inkscape:connector-curvature="0"
   style="fill:#ffffff" />
		</g>
	</g>
	<g
   id="g89">
		<path
   class="st0"
   d="M 79.58,15.7 H 79.1 c -11.98,0.14 -21.73,9.99 -21.73,21.98 0.01,11.97 9.76,21.82 21.7,21.97 l 0.35,0.02 0.25,-0.01 C 91.64,59.51 101.39,49.65 101.4,37.69 v 0 C 101.4,25.7 91.65,15.84 79.58,15.7 Z m 0.05,42.73 -0.19,0.01 -0.32,-0.01 C 67.82,58.29 58.61,48.98 58.6,37.68 58.6,26.37 67.81,17.06 79.14,16.93 l 0.21,-0.01 0.11,0.01 h 0.04 l 0.16,0.01 c 11.32,0.13 20.52,9.44 20.52,20.75 -0.02,11.29 -9.23,20.6 -20.55,20.74 z"
   id="path87"
   inkscape:connector-curvature="0"
   style="fill:#ffffff" />
	</g>
</g>
</svg>